<svg width="28" height="28" viewBox="0 0 28 28" fill="none" xmlns="http://www.w3.org/2000/svg">
<path d="M22.5718 0.285889C23.9885 0.285889 25.1998 0.788865 26.2058 1.79482C27.2117 2.80077 27.7147 4.01208 27.7147 5.42875V22.5716C27.7147 23.9883 27.2117 25.1996 26.2058 26.2055C25.1998 27.2115 23.9885 27.7145 22.5718 27.7145H19.2147V17.0895H22.7683L23.304 12.9466H19.2147V10.3037C19.2147 9.63708 19.3546 9.13708 19.6343 8.80375C19.9141 8.47041 20.4588 8.30375 21.2683 8.30375L23.4468 8.28589V4.58946C22.6968 4.48232 21.6373 4.42875 20.2683 4.42875C18.6492 4.42875 17.3546 4.90494 16.3843 5.85732C15.4141 6.8097 14.929 8.15494 14.929 9.89303V12.9466H11.3576V17.0895H14.929V27.7145H5.42899C4.01232 27.7145 2.80101 27.2115 1.79506 26.2055C0.789109 25.1996 0.286133 23.9883 0.286133 22.5716V5.42875C0.286133 4.01208 0.789109 2.80077 1.79506 1.79482C2.80101 0.788865 4.01232 0.285889 5.42899 0.285889H22.5718Z" fill="#C7A585"/>
</svg>
