<svg width="28" height="28" viewBox="0 0 28 28" fill="none" xmlns="http://www.w3.org/2000/svg">
<path d="M14.0003 0.666748C17.623 0.666748 18.075 0.680081 19.4963 0.746748C20.9163 0.813415 21.883 1.03608 22.7337 1.36675C23.6137 1.70541 24.355 2.16408 25.0963 2.90408C25.7743 3.57061 26.2989 4.37687 26.6337 5.26675C26.963 6.11608 27.187 7.08408 27.2537 8.50408C27.3163 9.92541 27.3337 10.3774 27.3337 14.0001C27.3337 17.6227 27.3203 18.0747 27.2537 19.4961C27.187 20.9161 26.963 21.8827 26.6337 22.7334C26.2999 23.6238 25.7752 24.4302 25.0963 25.0961C24.4296 25.7738 23.6234 26.2984 22.7337 26.6334C21.8843 26.9627 20.9163 27.1867 19.4963 27.2534C18.075 27.3161 17.623 27.3334 14.0003 27.3334C10.3777 27.3334 9.92566 27.3201 8.50432 27.2534C7.08432 27.1867 6.11766 26.9627 5.26699 26.6334C4.37676 26.2994 3.57036 25.7747 2.90433 25.0961C2.2262 24.4297 1.70157 23.6234 1.36699 22.7334C1.03633 21.8841 0.813659 20.9161 0.746992 19.4961C0.684325 18.0747 0.666992 17.6227 0.666992 14.0001C0.666992 10.3774 0.680325 9.92541 0.746992 8.50408C0.813659 7.08275 1.03633 6.11741 1.36699 5.26675C1.70064 4.37632 2.2254 3.56984 2.90433 2.90408C3.57055 2.22572 4.3769 1.70105 5.26699 1.36675C6.11766 1.03608 7.08299 0.813415 8.50432 0.746748C9.92566 0.684081 10.3777 0.666748 14.0003 0.666748ZM14.0003 7.33341C12.2322 7.33341 10.5365 8.03579 9.28628 9.28604C8.03604 10.5363 7.33366 12.232 7.33366 14.0001C7.33366 15.7682 8.03604 17.4639 9.28628 18.7141C10.5365 19.9644 12.2322 20.6667 14.0003 20.6667C15.7684 20.6667 17.4641 19.9644 18.7144 18.7141C19.9646 17.4639 20.667 15.7682 20.667 14.0001C20.667 12.232 19.9646 10.5363 18.7144 9.28604C17.4641 8.03579 15.7684 7.33341 14.0003 7.33341ZM22.667 7.00008C22.667 6.55805 22.4914 6.13413 22.1788 5.82157C21.8663 5.50901 21.4424 5.33341 21.0003 5.33341C20.5583 5.33341 20.1344 5.50901 19.8218 5.82157C19.5093 6.13413 19.3337 6.55805 19.3337 7.00008C19.3337 7.44211 19.5093 7.86603 19.8218 8.17859C20.1344 8.49115 20.5583 8.66675 21.0003 8.66675C21.4424 8.66675 21.8663 8.49115 22.1788 8.17859C22.4914 7.86603 22.667 7.44211 22.667 7.00008ZM14.0003 10.0001C15.0612 10.0001 16.0786 10.4215 16.8288 11.1717C17.5789 11.9218 18.0003 12.9392 18.0003 14.0001C18.0003 15.0609 17.5789 16.0784 16.8288 16.8285C16.0786 17.5787 15.0612 18.0001 14.0003 18.0001C12.9395 18.0001 11.922 17.5787 11.1719 16.8285C10.4218 16.0784 10.0003 15.0609 10.0003 14.0001C10.0003 12.9392 10.4218 11.9218 11.1719 11.1717C11.922 10.4215 12.9395 10.0001 14.0003 10.0001Z" fill="#C7A585"/>
</svg>
