<svg width="28" height="28" viewBox="0 0 28 28" fill="none" xmlns="http://www.w3.org/2000/svg">
<path d="M23.0379 27.3334H4.9637C2.57722 27.3334 0.635742 25.3961 0.635742 23.0144V4.98574C0.635742 2.60408 2.57722 0.666748 4.9637 0.666748H23.0379C25.4237 0.666748 27.3652 2.60408 27.3652 4.98574V23.0151C27.3652 25.3968 25.4237 27.3334 23.0379 27.3334ZM9.66768 22.7122H9.6732V11.2096H6.0945V22.7122H9.66699H9.66768ZM7.88144 9.63866C8.15353 9.63902 8.42302 9.5857 8.67447 9.48174C8.92592 9.37778 9.15439 9.22523 9.34679 9.03283C9.53919 8.84043 9.69174 8.61196 9.7957 8.36051C9.89966 8.10906 9.95298 7.83957 9.95262 7.56747C9.95152 7.0185 9.73296 6.49232 9.34478 6.10413C8.95659 5.71595 8.43041 5.49738 7.88144 5.49629C7.33218 5.49647 6.80547 5.71475 6.41709 6.10313C6.02871 6.49151 5.81043 7.01822 5.81025 7.56747C5.81043 8.11673 6.02871 8.64344 6.41709 9.03182C6.80547 9.4202 7.33218 9.63848 7.88144 9.63866ZM23.0586 22.7129V16.4069C23.0586 13.3084 22.3859 10.9247 18.7707 10.9247C17.0327 10.9247 15.866 11.8768 15.3865 12.7806H15.3383V11.2096H11.9113V22.7122H15.4838V17.0203C15.4838 15.519 15.7688 14.0667 17.6295 14.0667C19.4592 14.0667 19.4861 15.7832 19.4861 17.1169V22.7122H23.0586V22.7129Z" fill="#C7A585"/>
</svg>
