<svg width="27" height="27" viewBox="0 0 27 27" fill="none" xmlns="http://www.w3.org/2000/svg">
<path fill-rule="evenodd" clip-rule="evenodd" d="M26.6667 3.80952C26.6667 1.70476 24.9619 0 22.8571 0H3.80952C1.70476 0 0 1.70476 0 3.80952V22.8571C0 24.9619 1.70476 26.6667 3.80952 26.6667H22.8571C24.9619 26.6667 26.6667 24.9619 26.6667 22.8571V3.80952Z" fill="#C7A585"/>
<path d="M4.53687 21.1401H6.53688L11.8769 15.0701L16.5219 21.1301H21.9519L14.8269 11.7101L20.8569 4.86011H18.8569L13.9019 10.4901L9.65188 4.86511H4.04688L10.9419 13.8601L4.53188 21.1451L4.53687 21.1401ZM7.09188 6.36011H8.91188L18.9419 19.6301H17.2669L7.09688 6.36011H7.09188Z" fill="white"/>
</svg>
